<?xml version="1.0" standalone="no"?>
<!DOCTYPE svg PUBLIC "-//W3C//DTD SVG 20010904//EN"
 "http://www.w3.org/TR/2001/REC-SVG-20010904/DTD/svg10.dtd">
<svg version="1.0" xmlns="http://www.w3.org/2000/svg"
 width="96.000000pt" height="96.000000pt" viewBox="0 0 96.000000 96.000000"
 preserveAspectRatio="xMidYMid meet">
<metadata>
Created by potrace 1.11, written by Peter Selinger 2001-2013
</metadata>
<g transform="translate(0.000000,96.000000) scale(0.100000,-0.100000)"
fill="#000000" stroke="none">
<path d="M31 929 c-14 -40 -14 -39 3 -39 8 0 16 6 19 13 3 10 9 10 26 0 30
-19 61 -16 61 5 1 16 1 16 11 0 5 -10 17 -18 25 -18 12 0 13 4 4 21 -9 15 -8
24 1 35 9 11 8 14 -3 14 -8 0 -19 -5 -26 -12 -9 -9 -12 -9 -12 0 0 27 -19 10
-23 -20 l-3 -33 -13 33 c-18 44 -55 45 -70 1z"/>
<path d="M210 925 c0 -19 5 -35 10 -35 6 0 10 16 10 35 0 19 -4 35 -10 35 -5
0 -10 -16 -10 -35z"/>
<path d="M305 943 c4 -10 10 -26 12 -35 8 -28 30 -21 42 14 13 37 5 51 -15 24
-12 -17 -14 -18 -14 -3 0 9 -7 17 -16 17 -11 0 -14 -5 -9 -17z"/>
<path d="M380 934 c-18 -46 -13 -52 21 -31 17 10 23 10 26 0 3 -7 18 -13 34
-13 25 0 29 4 29 28 l1 27 20 -27 c29 -39 49 -36 49 7 0 24 -5 35 -15 35 -8 0
-15 -5 -15 -12 0 -9 -3 -9 -12 0 -7 7 -22 12 -35 12 -18 0 -23 -6 -24 -27 l-1
-28 -11 28 c-15 36 -54 37 -67 1z"/>
<path d="M570 925 c0 -29 4 -35 22 -35 12 0 30 7 40 17 17 15 18 15 18 0 0
-11 8 -17 25 -17 26 0 34 15 13 23 -10 4 -9 8 2 16 19 13 10 21 -33 26 -31 4
-36 2 -39 -17 -5 -32 -28 -35 -28 -4 0 14 -4 26 -10 26 -5 0 -10 -16 -10 -35z"/>
<path d="M710 925 c0 -35 0 -35 44 -35 26 0 46 5 49 13 3 9 9 9 27 -1 29 -18
35 -9 20 28 -17 41 -54 42 -68 0 -13 -36 -42 -31 -42 6 0 15 -6 24 -15 24 -10
0 -15 -11 -15 -35z"/>
<path d="M884 944 c3 -9 6 -24 6 -35 0 -10 5 -19 10 -19 6 0 10 10 10 23 0 13
5 28 12 35 9 9 6 12 -16 12 -22 0 -27 -4 -22 -16z"/>
<path d="M28 830 c5 -36 7 -35 16 3 4 19 3 27 -7 27 -9 0 -12 -9 -9 -30z"/>
<path d="M60 831 c0 -33 1 -34 15 -15 8 11 15 14 15 7 0 -25 20 -13 20 12 0
26 -15 34 -23 13 -4 -10 -8 -9 -16 2 -8 12 -11 8 -11 -19z"/>
<path d="M120 830 c0 -16 5 -30 11 -30 7 0 9 10 7 25 -3 13 0 26 6 29 6 2 3 5
-6 5 -13 1 -18 -7 -18 -29z"/>
<path d="M182 830 c0 -19 2 -27 5 -17 2 9 2 25 0 35 -3 9 -5 1 -5 -18z"/>
<path d="M207 853 c-4 -3 -6 -18 -6 -32 1 -20 3 -21 6 -7 4 15 7 16 14 5 8
-12 10 -12 18 0 7 11 10 10 14 -5 3 -14 5 -12 6 8 1 29 -14 46 -22 26 -4 -10
-7 -10 -14 0 -5 7 -12 9 -16 5z"/>
<path d="M270 829 c0 -28 1 -29 16 -14 15 14 18 15 34 0 23 -20 52 -9 48 19
-3 23 -48 37 -48 15 0 -10 -3 -10 -12 -1 -22 22 -38 13 -38 -19z m90 0 c0 -5
-7 -9 -15 -9 -15 0 -20 12 -9 23 8 8 24 -1 24 -14z"/>
<path d="M381 826 c0 -17 3 -25 6 -18 4 9 8 10 18 2 11 -9 12 -7 8 8 -2 11 0
23 6 26 7 4 11 -1 11 -13 0 -28 20 -27 21 2 1 21 1 21 8 -2 10 -36 29 -37 27
-2 -1 30 -1 31 -53 30 -53 -2 -53 -2 -52 -33z"/>
<path d="M500 833 c0 -22 5 -29 19 -29 26 0 24 49 -2 54 -13 3 -17 -3 -17 -25z"/>
<path d="M570 830 c0 -19 5 -30 14 -30 9 0 13 11 12 30 0 17 -6 30 -13 30 -8
0 -13 -13 -13 -30z"/>
<path d="M614 828 c-1 -20 2 -26 9 -19 7 7 15 7 25 -2 13 -10 14 -9 4 9 -8 14
-8 24 -1 31 7 7 3 10 -13 10 -19 0 -23 -5 -24 -29z"/>
<path d="M670 828 c0 -27 1 -28 16 -13 15 15 18 15 35 -1 18 -16 21 -16 36 -2
27 28 10 46 -41 46 -44 -1 -46 -2 -46 -30z m80 7 c0 -8 -4 -15 -10 -15 -5 0
-10 7 -10 15 0 8 5 15 10 15 6 0 10 -7 10 -15z"/>
<path d="M781 826 c0 -17 3 -25 6 -17 5 11 7 11 14 0 6 -10 9 -8 9 8 0 12 5
25 10 28 6 3 10 -3 10 -14 0 -12 5 -21 11 -21 6 0 9 7 6 15 -4 8 -2 17 3 20 6
4 10 -5 10 -19 0 -17 6 -26 15 -26 11 0 15 9 13 30 -2 29 -3 30 -55 29 -53 -2
-53 -2 -52 -33z"/>
<path d="M901 828 c0 -18 3 -27 6 -20 4 10 8 10 18 2 11 -9 13 -6 12 17 -2 17
-9 29 -20 31 -13 3 -17 -3 -16 -30z"/>
<path d="M395 749 c-29 -8 -50 -25 -85 -66 -17 -20 -19 -98 -3 -114 7 -7 12 7
16 42 8 64 28 96 73 115 30 13 38 12 62 0 53 -27 72 -119 29 -135 -33 -13 -44
-30 -50 -79 -5 -40 -4 -43 16 -40 18 2 22 10 22 43 0 31 4 39 15 36 8 -2 23
-3 34 -3 14 1 17 -4 11 -21 -4 -12 -10 -41 -14 -64 -10 -53 -36 -93 -61 -93
-11 0 -20 -4 -20 -10 0 -5 9 -10 21 -10 11 0 29 -5 40 -11 17 -9 18 -13 7 -27
-10 -12 -10 -14 0 -8 7 4 12 2 12 -8 0 -8 -20 -26 -45 -39 -52 -30 -56 -27
-17 11 15 15 18 19 7 9 -28 -22 -35 -14 -36 42 -1 42 -2 43 -9 16 -7 -29 -8
-29 -10 -5 -1 14 -2 29 -1 34 1 5 -9 21 -22 35 -14 14 -32 40 -41 56 -10 17
-14 21 -11 10 4 -11 7 -23 8 -27 1 -3 -14 -17 -33 -30 -37 -25 -103 -115 -95
-128 3 -5 1 -11 -5 -15 -5 -3 -10 -17 -10 -29 0 -13 -7 -29 -15 -36 -22 -18
-18 -30 8 -29 21 0 21 1 2 9 -18 7 -19 8 -2 15 9 4 33 4 53 0 31 -5 36 -4 31
9 -3 8 -2 18 2 20 12 8 40 -27 51 -63 7 -27 6 -31 -11 -31 -10 0 -19 -5 -19
-11 0 -7 11 -9 28 -6 20 4 34 -1 57 -23 23 -21 43 -29 88 -33 32 -3 57 -2 57
4 0 5 6 9 13 9 21 0 40 17 32 29 -5 9 -11 9 -23 -1 -15 -12 -16 -11 -4 4 8 9
11 22 7 28 -4 6 -1 9 6 8 17 -4 49 -62 49 -89 0 -18 -4 -21 -30 -16 -16 4 -32
2 -36 -4 -4 -7 -21 -9 -41 -6 -27 5 -32 3 -24 -7 11 -13 45 -15 57 -3 4 3 15
2 25 -4 11 -5 58 -8 105 -7 l86 3 28 55 c23 46 29 72 34 162 5 102 5 108 -18
135 -13 15 -48 41 -77 56 -95 49 -115 76 -104 134 4 21 2 40 -5 48 -7 8 -9 18
-6 24 3 5 -2 29 -13 53 -31 72 -109 103 -196 77z m-35 -334 c0 -2 -17 -14 -39
-24 -40 -21 -57 -54 -46 -94 5 -21 5 -21 -6 1 -7 12 -16 22 -21 22 -15 0 43
70 71 85 27 15 41 18 41 10z m28 -48 c4 -31 -14 -36 -35 -9 -13 16 -13 16 -5
-3 6 -13 4 -28 -4 -45 -14 -25 -14 -24 -14 13 0 21 5 47 11 58 15 28 43 20 47
-14z m250 -59 c16 -20 3 -61 -25 -82 l-26 -19 6 25 c7 25 6 25 -18 15 -28 -13
-42 -51 -52 -137 -7 -62 -21 -45 -22 28 -1 54 27 110 76 150 43 36 47 37 61
20z m-269 -49 c-5 -10 -9 -35 -9 -55 0 -34 -2 -37 -15 -23 -14 13 -13 21 1 69
11 37 18 49 24 40 5 -8 4 -22 -1 -31z m-140 -41 c1 -5 -3 -8 -9 -8 -5 0 -10
12 -9 28 0 24 1 25 9 7 5 -11 9 -23 9 -27z m371 -49 c-7 -11 -14 -18 -17 -15
-3 3 0 12 7 21 18 21 23 19 10 -6z"/>
<path d="M368 543 c6 -2 18 -2 25 0 6 3 1 5 -13 5 -14 0 -19 -2 -12 -5z"/>
<path d="M397 516 c-3 -8 -16 -16 -29 -19 -21 -4 -21 -4 -2 -6 21 -1 52 24 42
35 -3 3 -8 -2 -11 -10z"/>
<path d="M463 450 c-32 -13 -29 -17 7 -12 16 2 27 8 24 13 -3 5 -6 9 -7 8 -1
0 -12 -4 -24 -9z"/>
<path d="M135 87 c-13 -24 -16 -42 -10 -63 7 -27 9 -24 20 31 7 33 12 61 10
63 -1 1 -10 -13 -20 -31z"/>
<path d="M309 57 c5 -5 19 -7 32 -5 20 3 19 5 -9 9 -20 3 -29 2 -23 -4z"/>
</g>
</svg>
